<mxfile host="app.diagrams.net" modified="2021-10-06T15:16:37.367Z" agent="5.0 (Macintosh; Intel Mac OS X 10_13_6) AppleWebKit/537.36 (KHTML, like Gecko) Chrome/94.0.4606.61 Safari/537.36" etag="TjS8QHjq-XIHWgjhGXJM" version="15.2.9" type="github">
  <diagram id="u7RFNSgmH6CowNI7wiRs" name="Page-1">
    <mxGraphModel dx="1346" dy="557" grid="0" gridSize="10" guides="1" tooltips="1" connect="1" arrows="1" fold="1" page="0" pageScale="1" pageWidth="827" pageHeight="1169" math="0" shadow="0">
      <root>
        <mxCell id="0" />
        <mxCell id="1" parent="0" />
        <mxCell id="O3lEWMiRyyuiaHg8P2Vv-11" value="" style="edgeStyle=orthogonalEdgeStyle;rounded=0;orthogonalLoop=1;jettySize=auto;html=1;" parent="1" source="O3lEWMiRyyuiaHg8P2Vv-1" target="O3lEWMiRyyuiaHg8P2Vv-10" edge="1">
          <mxGeometry relative="1" as="geometry" />
        </mxCell>
        <mxCell id="O3lEWMiRyyuiaHg8P2Vv-19" style="edgeStyle=orthogonalEdgeStyle;rounded=0;orthogonalLoop=1;jettySize=auto;html=1;entryX=0.75;entryY=1;entryDx=0;entryDy=0;" parent="1" source="O3lEWMiRyyuiaHg8P2Vv-1" target="O3lEWMiRyyuiaHg8P2Vv-14" edge="1">
          <mxGeometry relative="1" as="geometry">
            <Array as="points">
              <mxPoint x="-11" y="333" />
              <mxPoint x="464" y="333" />
              <mxPoint x="464" y="299" />
            </Array>
            <mxPoint x="638" y="343" as="targetPoint" />
          </mxGeometry>
        </mxCell>
        <mxCell id="O3lEWMiRyyuiaHg8P2Vv-20" value="&lt;font style=&quot;font-size: 12px&quot;&gt;&amp;nbsp; subtitle start t&amp;nbsp;&amp;nbsp;&lt;/font&gt;" style="edgeLabel;html=1;align=center;verticalAlign=middle;resizable=0;points=[];fontSize=16;" parent="O3lEWMiRyyuiaHg8P2Vv-19" vertex="1" connectable="0">
          <mxGeometry x="-0.017" y="-1" relative="1" as="geometry">
            <mxPoint x="-78" y="-3" as="offset" />
          </mxGeometry>
        </mxCell>
        <mxCell id="O3lEWMiRyyuiaHg8P2Vv-1" value="&lt;font style=&quot;font-size: 12px&quot;&gt;Subtitle Validation&lt;/font&gt;" style="rounded=1;whiteSpace=wrap;html=1;fillColor=#d5e8d4;strokeColor=#82b366;strokeWidth=3;" parent="1" vertex="1">
          <mxGeometry x="-47" y="233" width="90" height="60" as="geometry" />
        </mxCell>
        <mxCell id="O3lEWMiRyyuiaHg8P2Vv-9" value="" style="edgeStyle=orthogonalEdgeStyle;rounded=0;orthogonalLoop=1;jettySize=auto;html=1;" parent="1" source="O3lEWMiRyyuiaHg8P2Vv-8" target="O3lEWMiRyyuiaHg8P2Vv-1" edge="1">
          <mxGeometry relative="1" as="geometry" />
        </mxCell>
        <mxCell id="O3lEWMiRyyuiaHg8P2Vv-8" value="&lt;font style=&quot;font-size: 12px&quot;&gt;Text Detection&lt;/font&gt;" style="rounded=1;whiteSpace=wrap;html=1;fillColor=#d5e8d4;strokeColor=#82b366;strokeWidth=3;" parent="1" vertex="1">
          <mxGeometry x="-192" y="233" width="90" height="60" as="geometry" />
        </mxCell>
        <mxCell id="O3lEWMiRyyuiaHg8P2Vv-13" value="" style="edgeStyle=orthogonalEdgeStyle;rounded=0;orthogonalLoop=1;jettySize=auto;html=1;" parent="1" source="O3lEWMiRyyuiaHg8P2Vv-10" target="O3lEWMiRyyuiaHg8P2Vv-12" edge="1">
          <mxGeometry relative="1" as="geometry" />
        </mxCell>
        <mxCell id="O3lEWMiRyyuiaHg8P2Vv-21" style="edgeStyle=orthogonalEdgeStyle;rounded=0;orthogonalLoop=1;jettySize=auto;html=1;entryX=0.378;entryY=1.033;entryDx=0;entryDy=0;entryPerimeter=0;" parent="1" source="O3lEWMiRyyuiaHg8P2Vv-10" target="O3lEWMiRyyuiaHg8P2Vv-14" edge="1">
          <mxGeometry relative="1" as="geometry">
            <mxPoint x="419" y="291" as="targetPoint" />
            <Array as="points">
              <mxPoint x="219" y="263" />
              <mxPoint x="219" y="313" />
              <mxPoint x="430" y="313" />
            </Array>
          </mxGeometry>
        </mxCell>
        <mxCell id="O3lEWMiRyyuiaHg8P2Vv-22" value="&lt;font style=&quot;font-size: 12px&quot;&gt;&amp;nbsp; subtitle endding t+n&amp;nbsp;&amp;nbsp;&lt;/font&gt;" style="edgeLabel;html=1;align=center;verticalAlign=middle;resizable=0;points=[];fontSize=16;" parent="O3lEWMiRyyuiaHg8P2Vv-21" vertex="1" connectable="0">
          <mxGeometry x="-0.0866" y="-1" relative="1" as="geometry">
            <mxPoint x="28" y="-2" as="offset" />
          </mxGeometry>
        </mxCell>
        <mxCell id="O3lEWMiRyyuiaHg8P2Vv-10" value="&lt;font style=&quot;font-size: 12px&quot;&gt;Subtitle Change Detection&lt;/font&gt;" style="rounded=1;whiteSpace=wrap;html=1;fillColor=#d5e8d4;strokeColor=#82b366;fontSize=16;strokeWidth=3;" parent="1" vertex="1">
          <mxGeometry x="101" y="233" width="90" height="60" as="geometry" />
        </mxCell>
        <mxCell id="O3lEWMiRyyuiaHg8P2Vv-15" value="" style="edgeStyle=orthogonalEdgeStyle;rounded=0;orthogonalLoop=1;jettySize=auto;html=1;" parent="1" source="O3lEWMiRyyuiaHg8P2Vv-12" target="O3lEWMiRyyuiaHg8P2Vv-14" edge="1">
          <mxGeometry relative="1" as="geometry" />
        </mxCell>
        <mxCell id="O3lEWMiRyyuiaHg8P2Vv-12" value="&lt;font style=&quot;font-size: 12px&quot;&gt;Text Recognition&lt;/font&gt;" style="rounded=1;whiteSpace=wrap;html=1;fillColor=#d5e8d4;strokeColor=#82b366;strokeWidth=3;" parent="1" vertex="1">
          <mxGeometry x="249" y="233" width="89" height="60" as="geometry" />
        </mxCell>
        <mxCell id="O3lEWMiRyyuiaHg8P2Vv-14" value="&lt;font style=&quot;font-size: 12px&quot;&gt;Text/Audio Pair&lt;/font&gt;" style="rounded=1;whiteSpace=wrap;html=1;fillColor=#d5e8d4;strokeColor=#82b366;strokeWidth=4;" parent="1" vertex="1">
          <mxGeometry x="396" y="233" width="90" height="60" as="geometry" />
        </mxCell>
      </root>
    </mxGraphModel>
  </diagram>
</mxfile>
